<svg width="24" height="32" viewBox="0 0 24 32" fill="none" xmlns="http://www.w3.org/2000/svg">
<path d="M14.8571 16C14.8571 17.5779 13.578 18.8571 12 18.8571C10.422 18.8571 9.14286 17.5779 9.14286 16C9.14286 14.422 10.422 13.1428 12 13.1428C13.578 13.1428 14.8571 14.422 14.8571 16Z" fill="white"/>
<path fill-rule="evenodd" clip-rule="evenodd" d="M12 28C18.0454 28 23.0467 23.5296 23.8785 17.7143L16.8502 17.7143C16.1442 19.7117 14.2392 21.1428 12 21.1428C9.76077 21.1428 7.85579 19.7117 7.14978 17.7143L0.121524 17.7143C0.953346 23.5296 5.95462 28 12 28ZM7.14978 14.2857L0.121524 14.2857C0.953346 8.47032 5.95462 3.99997 12 3.99997C18.0454 3.99997 23.0467 8.47032 23.8785 14.2857L16.8502 14.2857C16.1442 12.2882 14.2392 10.8571 12 10.8571C9.76077 10.8571 7.85579 12.2882 7.14978 14.2857ZM14.8571 16C14.8571 17.5779 13.578 18.8571 12 18.8571C10.422 18.8571 9.14286 17.5779 9.14286 16C9.14286 14.422 10.422 13.1428 12 13.1428C13.578 13.1428 14.8571 14.422 14.8571 16Z" fill="white"/>
</svg>
