<svg width="15" height="15" viewBox="0 0 15 15" fill="none" xmlns="http://www.w3.org/2000/svg">
<path d="M13.2725 13.7405L13.3774 12.6517C13.4022 12.3941 13.2134 12.165 12.9557 12.1402L4.42537 11.3189L14.7166 2.83539C14.9164 2.67073 14.9448 2.37527 14.7802 2.17553L14.0845 1.33156C13.9198 1.13181 13.6244 1.10336 13.4246 1.26802L3.13334 9.7515L3.95472 1.22115C3.97953 0.963471 3.79074 0.734456 3.53304 0.709614L2.44435 0.604813C2.18668 0.580002 1.95766 0.768788 1.93282 1.02649L0.824015 12.5418C0.799204 12.7995 0.98799 13.0285 1.24569 13.0534L12.761 14.1622C13.0187 14.187 13.2477 13.9982 13.2725 13.7405Z" fill="white"/>
</svg>
